<?xml version="1.0" encoding="utf-8"?>
<!-- Generator: Adobe Illustrator 24.1.1, SVG Export Plug-In . SVG Version: 6.00 Build 0)  -->
<svg version="1.1" id="Layer_1" xmlns="http://www.w3.org/2000/svg" xmlns:xlink="http://www.w3.org/1999/xlink" x="0px" y="0px"
	 viewBox="0 0 512 512" style="enable-background:new 0 0 512 512;" xml:space="preserve">
<style type="text/css">
	.st0{fill:#E44332;}
	.st1{fill:#FFFFFF;}
</style>
<g>
	<path class="st0" d="M448,0H64C28.7,0.1,0.1,28.7,0,64v384c0,35.2,28.8,64,64,64h384c35.2,0,64-28.8,64-64V64
		C512,28.8,483.2,0,448,0"/>
	<path class="st1" d="M108.3,241.6c8.9-5.2,200.7-116.7,205.1-119.2c4.4-2.6,4.6-10.4-0.3-13.2c-4.9-2.8-14.2-8.2-17.7-10.2
		c-4.9-2.7-10.9-2.6-15.8,0.2c-2.5,1.4-166.3,96.6-171.8,99.7c-6.6,3.8-14.7,3.8-21.2,0L0,148v43.2c21,12.4,73.4,43.2,86.1,50.5
		C93.7,246,100.9,245.9,108.3,241.6"/>
	<path class="st1" d="M108.3,323.2C117.2,318,309,206.6,313.3,204c4.4-2.6,4.6-10.4-0.3-13.2c-4.9-2.8-14.2-8.2-17.7-10.2
		c-4.9-2.7-10.9-2.6-15.8,0.2c-2.5,1.4-166.3,96.6-171.8,99.7c-6.6,3.8-14.7,3.8-21.2,0L0,229.6v43.2c21,12.4,73.4,43.2,86.1,50.5
		C93.7,327.6,100.9,327.5,108.3,323.2"/>
	<path class="st1" d="M108.3,409.9c8.9-5.2,200.7-116.7,205.1-119.2c4.4-2.6,4.6-10.4-0.3-13.2c-4.9-2.8-14.2-8.2-17.7-10.2
		c-4.9-2.7-10.9-2.6-15.8,0.2c-2.5,1.4-166.3,96.6-171.8,99.7c-6.6,3.8-14.7,3.8-21.2,0L0,316.4v43.2c21,12.4,73.4,43.2,86.1,50.4
		C93.7,414.3,100.9,414.2,108.3,409.9"/>
</g>
</svg>
